<?xml version="1.0" encoding="UTF-8"?>
<svg version="1.1" xmlns="http://www.w3.org/2000/svg" width="120" height="120">
<path d="M0 0 C39.6 0 79.2 0 120 0 C120 39.6 120 79.2 120 120 C80.4 120 40.8 120 0 120 C0 80.4 0 40.8 0 0 Z " fill="#FDFEFD" transform="translate(0,0)"/>
<path d="M0 0 C23.1 0 46.2 0 70 0 C70.495 2.475 70.495 2.475 71 5 C71.495 6.485 71.495 6.485 72 8 C71.83988879 10.70123106 71.39559392 13.31875231 71 16 C69.65808594 16.22042969 69.65808594 16.22042969 68.2890625 16.4453125 C57.73166897 18.40372026 49.02374614 21.46643503 42.2421875 30.14453125 C40.13905122 33.2860084 38.49335118 36.53226626 37 40 C36.38125 41.36125 36.38125 41.36125 35.75 42.75 C33.13352761 54.08804702 35.77423627 63.92670067 41.625 73.75 C46.16244842 80.16461616 53.25829743 85.35282924 61 87 C63.38016418 87.2995173 65.75357243 87.5576634 68.14453125 87.75390625 C70 88 70 88 71 89 C71.07179964 90.51928038 71.08392007 92.04167482 71.0625 93.5625 C71.05347656 94.38878906 71.04445313 95.21507813 71.03515625 96.06640625 C71.02355469 96.70449219 71.01195313 97.34257813 71 98 C70.0925 98.2475 69.185 98.495 68.25 98.75 C64.89648511 100.03981342 63.32291764 101.31971042 61 104 C62.48870271 105.48870271 63.9343803 105.29343803 66 105.5 C69.88888889 105.88888889 69.88888889 105.88888889 71 107 C71.14193337 110.00331018 71.04236378 112.99217134 71 116 C66.71 116 62.42 116 58 116 C59.11375 116.28875 60.2275 116.5775 61.375 116.875 C65 118 65 118 67 120 C44.89 120 22.78 120 0 120 C0 80.4 0 40.8 0 0 Z " fill="#FCFDFC" transform="translate(0,0)"/>
<path d="M0 0 C6.52531838 5.23428764 9.26187403 11.55937015 10.87890625 19.64453125 C10.87890625 20.63453125 10.87890625 21.62453125 10.87890625 22.64453125 C1.96890625 22.64453125 -6.94109375 22.64453125 -16.12109375 22.64453125 C-16.12109375 31.55453125 -16.12109375 40.46453125 -16.12109375 49.64453125 C-25.9717434 48.55001462 -30.91426836 46.57699846 -37.99609375 39.95703125 C-42.39654821 33.09749929 -45.15832892 25.81275822 -44.12109375 17.64453125 C-41.63362252 8.81261093 -37.53355783 2.41938572 -29.55859375 -2.23046875 C-19.78397029 -7.49238726 -9.17072634 -5.86048258 0 0 Z " fill="#2040D2" transform="translate(87.12109375,30.35546875)"/>
<path d="M0 0 C0 2.97 0 5.94 0 9 C-1.34191406 9.22042969 -1.34191406 9.22042969 -2.7109375 9.4453125 C-13.26833103 11.40372026 -21.97625386 14.46643503 -28.7578125 23.14453125 C-30.86094878 26.2860084 -32.50664882 29.53226626 -34 33 C-34.4125 33.9075 -34.825 34.815 -35.25 35.75 C-37.86647239 47.08804702 -35.22576373 56.92670067 -29.375 66.75 C-24.83755158 73.16461616 -17.74170257 78.35282924 -10 80 C-7.61983582 80.2995173 -5.24642757 80.5576634 -2.85546875 80.75390625 C-1 81 -1 81 0 82 C0.07179964 83.51928038 0.08392007 85.04167482 0.0625 86.5625 C0.05347656 87.38878906 0.04445312 88.21507813 0.03515625 89.06640625 C0.02355469 89.70449219 0.01195312 90.34257813 0 91 C-9.88178701 91.64446437 -19.89950082 88.11903949 -27.578125 81.91796875 C-38.23761 72.52079119 -45.20181938 62.31706092 -46.21875 47.8984375 C-46.54819451 36.17570369 -43.63476843 27.60461715 -37 18 C-36.52046875 17.29875 -36.0409375 16.5975 -35.546875 15.875 C-29.43397181 7.9714484 -18.86777247 1.7570289 -8.9765625 0.1640625 C-5.95644903 -0.08661885 -3.0291007 -0.1288979 0 0 Z " fill="#203FCC" transform="translate(71,7)"/>
<path d="M0 0 C2.97 0 5.94 0 9 0 C9.08636719 0.87140625 9.17273437 1.7428125 9.26171875 2.640625 C10.72614351 15.05464773 14.53094334 24.98952406 22 35 C22.40347656 35.60328125 22.80695312 36.2065625 23.22265625 36.828125 C29.15822524 44.88742968 41.27908247 51.10524489 51 53 C54.1992014 53.35765028 57.37920456 53.61859418 60.59375 53.7890625 C63 54 63 54 64 55 C64.07179964 56.51928038 64.08392007 58.04167482 64.0625 59.5625 C64.05347656 60.38878906 64.04445313 61.21507812 64.03515625 62.06640625 C64.02355469 62.70449219 64.01195313 63.34257813 64 64 C49.2710137 64.73644931 33.89369047 59.16943588 22.5625 49.625 C21.35124337 48.44048193 20.16452563 47.23049005 19 46 C18.25363281 45.26136719 17.50726562 44.52273437 16.73828125 43.76171875 C6.63543624 33.29149756 -0.20832203 18.87900213 -0.25 4.125 C-0.1675 2.76375 -0.085 1.4025 0 0 Z " fill="#2341C4" transform="translate(7,52)"/>
<path d="M0 0 C-0.99 0.495 -0.99 0.495 -2 1 C-1.34 1.33 -0.68 1.66 0 2 C-0.33 3.32 -0.66 4.64 -1 6 C4.94 6 10.88 6 17 6 C17.495 6.99 17.495 6.99 18 8 C20.32156597 8.40729228 22.6568787 8.74438677 25 9 C24.34 10.32 23.68 11.64 23 13 C22.39671875 12.72285156 21.7934375 12.44570313 21.171875 12.16015625 C20.37265625 11.79792969 19.5734375 11.43570312 18.75 11.0625 C17.96109375 10.70285156 17.1721875 10.34320313 16.359375 9.97265625 C9.51624675 7.1515653 3.16955751 7.42972841 -3.73046875 9.96875 C-11.3393553 13.42614423 -15.75256905 18.33439046 -19 26 C-21.65929188 35.04159239 -19.27861598 42.81528436 -15 51 C-12.88670782 53.43527447 -10.65593307 55.20038792 -8 57 C-7.34 57.66 -6.68 58.32 -6 59 C-6.66 60.98 -7.32 62.96 -8 65 C-5.36 65.66 -2.72 66.32 0 67 C0 67.99 0 68.98 0 70 C-9.04703976 68.81350298 -15.82816917 64.72347788 -21.890625 57.859375 C-28.28763409 48.87771577 -31.39885171 39.00333869 -30 28 C-27.60102494 17.50980728 -21.784197 9.34501303 -12.984375 3.22265625 C-4.52359651 -1.99038246 -4.52359651 -1.99038246 0 0 Z " fill="#F1F6FB" transform="translate(64,18)"/>
<path d="M0 0 C1.8867137 2.83007054 3.16138189 5.53535493 4.5625 8.625 C10.45574778 20.45440756 19.85334696 27.05735756 32.0703125 31.375 C35.02723187 32.33270668 37.99986734 33.18746407 41 34 C37.25 38.875 37.25 38.875 35 40 C35.33 40.66 35.66 41.32 36 42 C29.87270359 41.52761625 25.36142321 40.15456777 19.9375 37.3125 C19.23431641 36.94874268 18.53113281 36.58498535 17.80664062 36.21020508 C8.25866143 31.14982068 3.11236133 24.92245991 -3 16 C-1.35 14.68 0.3 13.36 2 12 C2.33 12.33 2.66 12.66 3 13 C3 11.68 3 10.36 3 9 C1.68 8.34 0.36 7.68 -1 7 C-0.67 4.69 -0.34 2.38 0 0 Z " fill="#F0F3FB" transform="translate(26,64)"/>
<path d="M0 0 C1.875 0.625 1.875 0.625 4 2 C4.72648856 3.97905503 5.39869186 5.97938797 6 8 C6.91523437 8.12117188 7.83046875 8.24234375 8.7734375 8.3671875 C10.55621094 8.61855469 10.55621094 8.61855469 12.375 8.875 C13.55835937 9.03742188 14.74171875 9.19984375 15.9609375 9.3671875 C19 10 19 10 21 12 C23.55867474 12.4657363 26.04687908 12.83484248 28.625 13.125 C29.33140625 13.21136719 30.0378125 13.29773438 30.765625 13.38671875 C32.50950141 13.59881183 34.2546484 13.80040991 36 14 C36.495 16.97 36.495 16.97 37 20 C34.03 20 31.06 20 28 20 C28 19.34 28 18.68 28 18 C25.14105507 16.76392203 25.14105507 16.76392203 22.6875 17.5 C19.53759463 18.08602891 17.11479378 17.65193358 14 17 C14.33 16.01 14.66 15.02 15 14 C13.906875 13.87625 12.81375 13.7525 11.6875 13.625 C8 13 8 13 5 11 C5 9.68 5 8.36 5 7 C4.071875 7.0825 3.14375 7.165 2.1875 7.25 C-1 7 -1 7 -2.875 5 C-3.24625 4.34 -3.6175 3.68 -4 3 C-2.68 2.67 -1.36 2.34 0 2 C0 1.34 0 0.68 0 0 Z " fill="#1C3ED5" transform="translate(32,94)"/>
<path d="M0 0 C0.99 0.99 1.98 1.98 3 3 C2.01 3.66 1.02 4.32 0 5 C-0.65980954 8.0761981 -0.95027891 11.1222075 -1.27734375 14.25 C-1.51582031 15.1575 -1.75429688 16.065 -2 17 C-2.66644531 17.32742187 -3.33289063 17.65484375 -4.01953125 17.9921875 C-4.67308594 18.32476562 -5.32664062 18.65734375 -6 19 C-6.70535611 21.8786935 -6.70535611 21.8786935 -6.75 25.125 C-6.80671875 26.22070312 -6.8634375 27.31640625 -6.921875 28.4453125 C-6.94765625 29.28835937 -6.9734375 30.13140625 -7 31 C-7.66 31 -8.32 31 -9 31 C-9 30.01 -9 29.02 -9 28 C-9.99 28 -10.98 28 -12 28 C-11.22095672 17.44191344 -11.22095672 17.44191344 -9 13 C-8.34 13 -7.68 13 -7 13 C-6.67 11.35 -6.34 9.7 -6 8 C-5.01 7.67 -4.02 7.34 -3 7 C-2.87625 6.030625 -2.7525 5.06125 -2.625 4.0625 C-2.41875 3.051875 -2.2125 2.04125 -2 1 C-1.34 0.67 -0.68 0.34 0 0 Z " fill="#1E3DD8" transform="translate(40,20)"/>
<path d="M0 0 C1.47906892 -0.02689216 2.95827483 -0.04634621 4.4375 -0.0625 C5.26121094 -0.07410156 6.08492187 -0.08570312 6.93359375 -0.09765625 C9 0 9 0 10 1 C10.07179964 2.51928038 10.08392007 4.04167482 10.0625 5.5625 C10.05347656 6.38878906 10.04445313 7.21507813 10.03515625 8.06640625 C10.02355469 8.70449219 10.01195313 9.34257813 10 10 C1.67628387 10.54285105 -5.73882588 8.01275412 -13 4 C-10 3 -10 3 -7.625 4.0625 C-4.98128094 5.30311796 -4.98128094 5.30311796 -2.1875 4.125 C-1.465625 3.75375 -0.74375 3.3825 0 3 C0 2.01 0 1.02 0 0 Z " fill="#1C3DCE" transform="translate(61,88)"/>
<path d="M0 0 C0.99 0.33 1.98 0.66 3 1 C3 1.99 3 2.98 3 4 C3.66 4 4.32 4 5 4 C5.33 4.99 5.66 5.98 6 7 C6.66 7.33 7.32 7.66 8 8 C11 14.23076923 11 14.23076923 11 18 C8.50638429 16.79618552 6.31856917 15.54571278 4 14 C4 13.01 4 12.02 4 11 C3.01 11.495 3.01 11.495 2 12 C2.33 12.66 2.66 13.32 3 14 C2.01 13.67 1.02 13.34 0 13 C-1.57170996 9.85658007 -1.23175783 6.44228549 -1 3 C-0.67 2.01 -0.34 1.02 0 0 Z " fill="#1C3CD2" transform="translate(32,64)"/>
<path d="M0 0 C2.97 0 5.94 0 9 0 C9 1.32 9 2.64 9 4 C7.02 4 5.04 4 3 4 C3.23731974 5.89855794 3.47502994 7.79706799 3.71484375 9.6953125 C3.90225447 11.21000189 4.08217186 12.72564075 4.25390625 14.2421875 C4.65585695 18.2474173 4.65585695 18.2474173 6 22 C6.66 21.34 7.32 20.68 8 20 C7.67 22.64 7.34 25.28 7 28 C0.56456068 20.51350039 -0.57572614 9.49948135 0 0 Z " fill="#2941C9" transform="translate(7,52)"/>
<path d="M0 0 C0 0.66 0 1.32 0 2 C5.94 3.485 5.94 3.485 12 5 C12 6.32 12 7.64 12 9 C8.02715332 10.84107529 6.45218539 11.14084463 2.1875 9.8125 C-1 8 -1 8 -2 5 C-4.01508358 4.26676204 -4.01508358 4.26676204 -6 4 C-6 3.34 -6 2.68 -6 2 C-2.25 0 -2.25 0 0 0 Z " fill="#1B3ED6" transform="translate(49,83)"/>
<path d="M0 0 C5.92925112 5.60875106 8.35079315 10.13455195 10 18 C10 18.99 10 19.98 10 21 C1.09 21 -7.82 21 -17 21 C-13.69711664 18.79807776 -12.72537273 18.76040032 -8.89453125 18.8046875 C-7.91162109 18.81113281 -6.92871094 18.81757812 -5.91601562 18.82421875 C-4.89185547 18.84097656 -3.86769531 18.85773437 -2.8125 18.875 C-1.77673828 18.88402344 -0.74097656 18.89304687 0.32617188 18.90234375 C2.88421306 18.92592017 5.44213553 18.96179124 8 19 C7.01 15.37 6.02 11.74 5 8 C2.525 7.505 2.525 7.505 0 7 C0 4.69 0 2.38 0 0 Z " fill="#4F62C1" transform="translate(88,32)"/>
<path d="M0 0 C0.66 0.33 1.32 0.66 2 1 C0.7934375 2.175625 0.7934375 2.175625 -0.4375 3.375 C-2.98690417 5.71982856 -2.98690417 5.71982856 -4 8 C-6.0625 8.625 -6.0625 8.625 -8 9 C-5.525 10.98 -5.525 10.98 -3 13 C-4.10281127 14.27200971 -5.20730769 15.54255853 -6.3125 16.8125 C-7.23482422 17.87404297 -7.23482422 17.87404297 -8.17578125 18.95703125 C-9.73334335 20.70136739 -11.32658875 22.36778041 -13 24 C-12.91266424 22.39482903 -12.80447776 20.79078338 -12.6875 19.1875 C-12.62949219 18.29417969 -12.57148437 17.40085937 -12.51171875 16.48046875 C-11.93686419 13.69396 -11.1793144 12.75864246 -9 11 C-10.32 10.34 -11.64 9.68 -13 9 C-3.62790698 1.81395349 -3.62790698 1.81395349 0 0 Z " fill="#2746C2" transform="translate(51,11)"/>
<path d="M0 0 C1.66611905 -0.042721 3.33382885 -0.04063832 5 0 C6 1 6 1 6.11352539 3.40844727 C6.10828857 4.45057373 6.10305176 5.4927002 6.09765625 6.56640625 C6.09443359 7.69111328 6.09121094 8.81582031 6.08789062 9.97460938 C6.07951172 11.15861328 6.07113281 12.34261719 6.0625 13.5625 C6.05798828 14.75037109 6.05347656 15.93824219 6.04882812 17.16210938 C6.03699675 20.10812226 6.02051287 23.05403681 6 26 C0.57047545 26.26047826 -2.69188628 26.22339864 -7.375 23.1875 C-8.20773438 22.66542969 -9.04046875 22.14335938 -9.8984375 21.60546875 C-12 20 -12 20 -14 17 C-11.03781087 17.4557214 -9.66688883 18.24428152 -7.1875 20.0625 C-3.44345219 22.33829377 -1.29958744 22.24805312 3 22 C3.66 22.33 4.32 22.66 5 23 C5 16.4 5 9.8 5 3 C2.525 2.505 2.525 2.505 0 2 C0 1.34 0 0.68 0 0 Z " fill="#233FC0" transform="translate(64,53)"/>
<path d="M0 0 C6.15234375 -0.09765625 6.15234375 -0.09765625 8 0 C9 1 9 1 9.09765625 3.06640625 C9.08605469 3.89011719 9.07445313 4.71382813 9.0625 5.5625 C9.05347656 6.38878906 9.04445313 7.21507813 9.03515625 8.06640625 C9.02355469 8.70449219 9.01195313 9.34257813 9 10 C1.63388921 10.36830554 -4.99379683 9.38276489 -12 7 C-12.66 6.34 -13.32 5.68 -14 5 C-12.14375 5.0309375 -12.14375 5.0309375 -10.25 5.0625 C-7.3359175 5.06766681 -4.79046673 4.93015558 -2 4 C-2 5.32 -2 6.64 -2 8 C0.97 8 3.94 8 7 8 C6.67 6.02 6.34 4.04 6 2 C4.02 2 2.04 2 0 2 C0 1.34 0 0.68 0 0 Z " fill="#4659C1" transform="translate(62,106)"/>
<path d="M0 0 C0 2.97 0 5.94 0 9 C-5.445 9.495 -5.445 9.495 -11 10 C-10.67 9.34 -10.34 8.68 -10 8 C-8.35 8 -6.7 8 -5 8 C-5 6.35 -5 4.7 -5 3 C-11.435 3.495 -11.435 3.495 -18 4 C-13.55498643 -0.44501357 -5.97780497 -0.25437468 0 0 Z " fill="#3D50C4" transform="translate(71,7)"/>
<path d="M0 0 C1 2 1 2 0.75 4 C0 6 0 6 -3 8 C-3.72382467 10.05925139 -3.72382467 10.05925139 -4 12 C-4.66 12 -5.32 12 -6 12 C-6.19916016 13.24716797 -6.19916016 13.24716797 -6.40234375 14.51953125 C-6.57894531 15.60621094 -6.75554688 16.69289063 -6.9375 17.8125 C-7.11152344 18.89144531 -7.28554688 19.97039063 -7.46484375 21.08203125 C-8 24 -8 24 -9 27 C-9.66 27 -10.32 27 -11 27 C-11 30.3 -11 33.6 -11 37 C-11.33 37 -11.66 37 -12 37 C-12.63646226 21.96063256 -9.1417047 11.91686505 0 0 Z " fill="#465FC0" transform="translate(37,21)"/>
<path d="M0 0 C5.94 1.485 5.94 1.485 12 3 C8.25 7.875 8.25 7.875 6 9 C6.33 9.66 6.66 10.32 7 11 C2.28596212 10.52060632 -1.66579301 10.03165952 -6 8 C-6 7.67 -6 7.34 -6 7 C-1.545 6.505 -1.545 6.505 3 6 C3 5.34 3 4.68 3 4 C2.01 3.34 1.02 2.68 0 2 C0 1.34 0 0.68 0 0 Z " fill="#ECF3FD" transform="translate(55,95)"/>
<path d="M0 0 C0.66 0 1.32 0 2 0 C1.67 1.2375 1.34 2.475 1 3.75 C-1.23760304 14.09486043 -0.12787566 22.33513449 4 32 C4.33 32.99 4.66 33.98 5 35 C4.01 34.67 3.02 34.34 2 34 C2 33.01 2 32.02 2 31 C1.34 31 0.68 31 0 31 C-1.69626258 27.29879548 -2.25614619 24.39336273 -2.265625 20.33203125 C-2.26820312 19.27435547 -2.27078125 18.21667969 -2.2734375 17.12695312 C-2.26570313 16.03318359 -2.25796875 14.93941406 -2.25 13.8125 C-2.25773437 12.70712891 -2.26546875 11.60175781 -2.2734375 10.46289062 C-2.27085938 9.40908203 -2.26828125 8.35527344 -2.265625 7.26953125 C-2.26336914 6.30635986 -2.26111328 5.34318848 -2.25878906 4.35083008 C-2 2 -2 2 0 0 Z " fill="#3046BD" transform="translate(35,37)"/>
<path d="M0 0 C1.78582287 3.38148868 3.14488935 6.8638088 4.5 10.4375 C5.96980215 14.30469286 7.45114455 18.16371451 9 22 C6.625 21.75 6.625 21.75 4 21 C0.28041896 15.18151251 -0.36414647 6.73670977 0 0 Z " fill="#E3EDFC" transform="translate(8,66)"/>
<path d="M0 0 C2.34914492 2.34914492 2.73140357 3.95679446 3.625 7.125 C3.88539062 8.03507812 4.14578125 8.94515625 4.4140625 9.8828125 C4.70410156 10.93082031 4.70410156 10.93082031 5 12 C4.34 12 3.68 12 3 12 C3 11.34 3 10.68 3 10 C2.34 10 1.68 10 1 10 C1 11.32 1 12.64 1 14 C1.66 14.33 2.32 14.66 3 15 C2.01 15.33 1.02 15.66 0 16 C0.33 17.98 0.66 19.96 1 22 C-1.0625 19.9375 -1.0625 19.9375 -3 17 C-2.87936139 13.56179975 -2.51769763 11.00494247 -0.9375 7.9375 C0.3589057 5.25826155 0.13326354 2.93179788 0 0 Z " fill="#2849C7" transform="translate(17,66)"/>
<path d="M0 0 C1.65 0 3.3 0 5 0 C5 1.65 5 3.3 5 5 C4.01 5.495 4.01 5.495 3 6 C2.59270772 8.32156597 2.25561323 10.6568787 2 13 C2.66 13 3.32 13 4 13 C4 14.65 4 16.3 4 18 C3.34 18.33 2.68 18.66 2 19 C-0.30844801 12.65176798 -0.19818283 6.70518586 0 0 Z " fill="#1B3DDC" transform="translate(10,56)"/>
<path d="M0 0 C0.49628906 0.38671875 0.99257813 0.7734375 1.50390625 1.171875 C4.86164618 3.7459299 8.17253283 6.19220772 11.875 8.25 C15 10 15 10 17 12 C13.25 15 13.25 15 11 15 C11.33 13.68 11.66 12.36 12 11 C11.29875 10.7525 10.5975 10.505 9.875 10.25 C6.5503955 8.80451978 3.84153492 7.26031187 1 5 C0.125 2.25 0.125 2.25 0 0 Z " fill="#EBF0FC" transform="translate(37,83)"/>
<path d="M0 0 C1.32 0 2.64 0 4 0 C6 3 6 3 6 6 C3.04335481 7.4783226 0.25770263 7.06032783 -3 7 C-1.125 1.125 -1.125 1.125 0 0 Z " fill="#F6F7F4" transform="translate(54,22)"/>
<path d="M0 0 C1.828125 1.63671875 1.828125 1.63671875 3 3 C0.91866843 2.51498382 -1.07456353 1.97305101 -3.0859375 1.24609375 C-10.408831 -1.34066214 -17.29709622 -1.29968069 -25 -1 C-18.50017288 -7.49982712 -7.18564494 -3.42119082 0 0 Z " fill="#3B50BC" transform="translate(85,29)"/>
<path d="M0 0 C2 0 2 0 3.5 1.375 C3.995 1.91125 4.49 2.4475 5 3 C5.66 3.66 6.32 4.32 7 5 C5 7 5 7 2.6171875 7.1953125 C1.71226563 7.17210938 0.80734375 7.14890625 -0.125 7.125 C-1.49011719 7.09792969 -1.49011719 7.09792969 -2.8828125 7.0703125 C-3.58148438 7.04710938 -4.28015625 7.02390625 -5 7 C-5 6.34 -5 5.68 -5 5 C-4.01 4.34 -3.02 3.68 -2 3 C-1.34 2.01 -0.68 1.02 0 0 Z " fill="#FBFCF6" transform="translate(53,95)"/>
<path d="M0 0 C2.31 0 4.62 0 7 0 C7 1.32 7 2.64 7 4 C10.3 4.99 13.6 5.98 17 7 C16.67 7.99 16.34 8.98 16 10 C13.70320812 8.90557567 11.41295036 7.80013339 9.125 6.6875 C8.47402344 6.37876953 7.82304688 6.07003906 7.15234375 5.75195312 C3.80323602 4.11192615 2.10994121 3.16491182 0 0 Z " fill="#3447C0" transform="translate(30,101)"/>
<path d="M0 0 C1.47906892 -0.02689216 2.95827483 -0.04634621 4.4375 -0.0625 C5.26121094 -0.07410156 6.08492188 -0.08570312 6.93359375 -0.09765625 C9 0 9 0 10 1 C10.07179964 2.51928038 10.08392007 4.04167482 10.0625 5.5625 C10.05347656 6.38878906 10.04445313 7.21507813 10.03515625 8.06640625 C10.02355469 8.70449219 10.01195313 9.34257813 10 10 C6.625 10.125 6.625 10.125 3 10 C2.34 9.34 1.68 8.68 1 8 C3.31 8 5.62 8 8 8 C7.67 6.35 7.34 4.7 7 3 C4.69 2.34 2.38 1.68 0 1 C0 0.67 0 0.34 0 0 Z " fill="#5765C3" transform="translate(61,88)"/>
<path d="M0 0 C0.66 0 1.32 0 2 0 C2 0.66 2 1.32 2 2 C2.66 2 3.32 2 4 2 C4 3.65 4 5.3 4 7 C3.34 7 2.68 7 2 7 C2.66 8.65 3.32 10.3 4 12 C3.01 12.495 3.01 12.495 2 13 C1.34 12.67 0.68 12.34 0 12 C-0.625 8.9375 -0.625 8.9375 -1 6 C-0.34 5.67 0.32 5.34 1 5 C0.67 3.35 0.34 1.7 0 0 Z " fill="#1F38D7" transform="translate(18,76)"/>
<path d="M0 0 C0.99 0.66 1.98 1.32 3 2 C2.04454634 3.46022163 1.08553322 4.91811468 0.125 6.375 C-0.40867187 7.18710937 -0.94234375 7.99921875 -1.4921875 8.8359375 C-3 11 -3 11 -5 13 C-5.79953138 9.71303767 -6.09658936 8.28976808 -5 5 C-3.37347684 3.29413425 -1.70993434 1.6222454 0 0 Z " fill="#E7EDFD" transform="translate(33,22)"/>
<path d="M0 0 C3.18005028 3.88672813 6.10554447 7.89952133 9 12 C8.67 12.66 8.34 13.32 8 14 C7.34 14 6.68 14 6 14 C6 13.34 6 12.68 6 12 C5.34 12 4.68 12 4 12 C3.67 10.35 3.34 8.7 3 7 C2.01 7 1.02 7 0 7 C0 4.69 0 2.38 0 0 Z " fill="#3149D0" transform="translate(22,78)"/>
<path d="M0 0 C2.97 0 5.94 0 9 0 C8.67 1.32 8.34 2.64 8 4 C8 3.34 8 2.68 8 2 C6.02 2 4.04 2 2 2 C2 5.3 2 8.6 2 12 C0 10 0 10 -0.1953125 7.6171875 C-0.17210937 6.71226563 -0.14890625 5.80734375 -0.125 4.875 C-0.10695313 3.96492188 -0.08890625 3.05484375 -0.0703125 2.1171875 C-0.04710937 1.41851562 -0.02390625 0.71984375 0 0 Z " fill="#4E61BD" transform="translate(7,52)"/>
<path d="M0 0 C0.99 0.33 1.98 0.66 3 1 C3.25 3.25 3.25 3.25 3 6 C1 8.3125 1 8.3125 -1 10 C-1.66 9.67 -2.32 9.34 -3 9 C-2.67 6.69 -2.34 4.38 -2 2 C-1.34 2 -0.68 2 0 2 C0 1.34 0 0.68 0 0 Z " fill="#153DCF" transform="translate(33,31)"/>
<path d="M0 0 C1 2 1 2 0.75 4 C0 6 0 6 -3 8 C-3.72382467 10.05925139 -3.72382467 10.05925139 -4 12 C-4.66 12 -5.32 12 -6 12 C-6.33 13.65 -6.66 15.3 -7 17 C-7.66 16.67 -8.32 16.34 -9 16 C-7.51637716 9.73581469 -3.75837844 5.08486495 0 0 Z " fill="#354DB9" transform="translate(37,21)"/>
<path d="M0 0 C0.66 0.33 1.32 0.66 2 1 C2.625 3.5625 2.625 3.5625 3 6 C2.34 6 1.68 6 1 6 C0.67 8.97 0.34 11.94 0 15 C-0.66 14.67 -1.32 14.34 -2 14 C-2.625 11.4375 -2.625 11.4375 -3 9 C-2.34 9 -1.68 9 -1 9 C-1.020625 7.700625 -1.04125 6.40125 -1.0625 5.0625 C-1.08399454 3.70834367 -1.07148199 2.35243917 -1 1 C-0.67 0.67 -0.34 0.34 0 0 Z " fill="#2041C3" transform="translate(31,58)"/>
<path d="M0 0 C-3.7935871 3.21880117 -7.65829477 5.6163187 -12 8 C-12 5 -12 5 -9.9375 2.3125 C-6.34650802 -0.51445113 -4.45768233 -0.43702768 0 0 Z " fill="#EBF5FE" transform="translate(51,11)"/>
<path d="M0 0 C2.88810999 0.44432461 4.40064775 1.27000175 6.875 2.9375 C9.90173773 4.9351469 12.53308314 6.00945233 16 7 C14.3203125 8.16796875 14.3203125 8.16796875 12 9 C9.4921875 7.98828125 9.4921875 7.98828125 6.875 6.3125 C6.00617187 5.77238281 5.13734375 5.23226562 4.2421875 4.67578125 C2 3 2 3 0 0 Z " fill="#314AB4" transform="translate(50,70)"/>
<path d="M0 0 C-0.3125 1.9375 -0.3125 1.9375 -1 4 C-1.99 4.33 -2.98 4.66 -4 5 C-4 5.99 -4 6.98 -4 8 C-4.99 8 -5.98 8 -7 8 C-7 9.32 -7 10.64 -7 12 C-7.99 11.67 -8.98 11.34 -10 11 C-9.23439544 9.7260098 -8.46227374 8.45593488 -7.6875 7.1875 C-7.25824219 6.47980469 -6.82898437 5.77210937 -6.38671875 5.04296875 C-2.96367113 0 -2.96367113 0 0 0 Z " fill="#3148BF" transform="translate(55,31)"/>
<path d="M0 0 C2.76276177 0.52268466 5.3260876 1.10869587 8 2 C10.14255793 1.61067144 10.14255793 1.61067144 12 1 C12.33 1.66 12.66 2.32 13 3 C13.99 3.66 14.98 4.32 16 5 C12.25639086 6.39607277 9.97678466 5.57200275 6.3125 4.1875 C5.33925781 3.83042969 4.36601563 3.47335938 3.36328125 3.10546875 C1 2 1 2 0 0 Z " fill="#3149C1" transform="translate(48,91)"/>
<path d="M0 0 C0.66 0.33 1.32 0.66 2 1 C0.60643954 3.78712092 -1.16505673 4.26463329 -3.9375 5.625 C-4.83339844 6.07101563 -5.72929688 6.51703125 -6.65234375 6.9765625 C-9 8 -9 8 -11 8 C-11 7.01 -11 6.02 -11 5 C-10.01 4.67 -9.02 4.34 -8 4 C-8.33 3.34 -8.66 2.68 -9 2 C-5.62182575 1.15545644 -3.32534757 0.89155081 0 2 C0 1.34 0 0.68 0 0 Z " fill="#2C45C8" transform="translate(59,15)"/>
<path d="M0 0 C1.56073255 2.34109882 2.86373867 4.56333403 4.125 7.0625 C4.47820313 7.75472656 4.83140625 8.44695312 5.1953125 9.16015625 C6 11 6 11 6 13 C5.01 13 4.02 13 3 13 C3 11.68 3 10.36 3 9 C1.68 8.34 0.36 7.68 -1 7 C-0.67 4.69 -0.34 2.38 0 0 Z " fill="#DFEAFB" transform="translate(26,64)"/>
<path d="M0 0 C0.66 0 1.32 0 2 0 C1.69255859 0.80050781 1.69255859 0.80050781 1.37890625 1.6171875 C-0.717157 7.41395572 -1.62810501 12.85732066 -2 19 C-2.33 19 -2.66 19 -3 19 C-3.31461385 11.90370975 -3.44572039 6.31715405 0 0 Z " fill="#C6D6F8" transform="translate(37,39)"/>
<path d="M0 0 C2.33294775 -0.04241723 4.66702567 -0.04092937 7 0 C7.33 0.33 7.66 0.66 8 1 C10.32817964 1.36760731 12.6618385 1.70241581 15 2 C14.34 3.32 13.68 4.64 13 6 C11.58280758 5.37619308 10.1662694 4.7508997 8.75 4.125 C7.96109375 3.77695312 7.1721875 3.42890625 6.359375 3.0703125 C4.21131392 2.09586095 2.10170798 1.07013571 0 0 Z " fill="#D9E8FC" transform="translate(74,25)"/>
<path d="M0 0 C3 1.8125 3 1.8125 6 4 C6 4.99 6 5.98 6 7 C2.31245243 6.50168276 0.39509338 5.89932357 -2 3 C-1.34 2.01 -0.68 1.02 0 0 Z " fill="#1940E2" transform="translate(54,67)"/>
<path d="M0 0 C0 0.99 0 1.98 0 3 C-1.46015291 2.71758359 -2.91809793 2.42373386 -4.375 2.125 C-5.18710937 1.96257812 -5.99921875 1.80015625 -6.8359375 1.6328125 C-9 1 -9 1 -11 -1 C-6.74938644 -2.41687119 -4.28148375 -1.19320039 0 0 Z " fill="#DCE7F9" transform="translate(64,85)"/>
<path d="M0 0 C2.34914492 2.34914492 2.73140357 3.95679446 3.625 7.125 C3.88539062 8.03507812 4.14578125 8.94515625 4.4140625 9.8828125 C4.70410156 10.93082031 4.70410156 10.93082031 5 12 C4.34 12 3.68 12 3 12 C3 11.34 3 10.68 3 10 C2.01 10 1.02 10 0 10 C0 6.7 0 3.4 0 0 Z " fill="#364BC4" transform="translate(17,66)"/>
<path d="M0 0 C1.32 0 2.64 0 4 0 C4 0.66 4 1.32 4 2 C4.66 2.33 5.32 2.66 6 3 C5.34 3 4.68 3 4 3 C3.34 4.32 2.68 5.64 2 7 C1.34 6.67 0.68 6.34 0 6 C-0.6875 3.5 -0.6875 3.5 -1 1 C-0.67 0.67 -0.34 0.34 0 0 Z " fill="#FBFCFB" transform="translate(47,74)"/>
<path d="M0 0 C0.50789063 0.33773437 1.01578125 0.67546875 1.5390625 1.0234375 C5.59911488 3.65410814 9.287806 5.70414665 14 7 C14 7.33 14 7.66 14 8 C5.5 7 5.5 7 2 5 C0.6875 2.375 0.6875 2.375 0 0 Z " fill="#3448B7" transform="translate(47,80)"/>
<path d="M0 0 C-2.97 3.96 -2.97 3.96 -6 8 C-7.43088528 5.13822943 -6.59991697 3.06624227 -6 0 C-2.25 -1.125 -2.25 -1.125 0 0 Z " fill="#374BB8" transform="translate(45,27)"/>
<path d="M0 0 C0.99 0.495 0.99 0.495 2 1 C2.4140625 3.06640625 2.4140625 3.06640625 2.625 5.5625 C2.69976562 6.38878906 2.77453125 7.21507813 2.8515625 8.06640625 C2.92503906 9.02353516 2.92503906 9.02353516 3 10 C2.01 10 1.02 10 0 10 C0 6.7 0 3.4 0 0 Z " fill="#FBFCEA" transform="translate(8,75)"/>
<path d="M0 0 C0.66 0.99 1.32 1.98 2 3 C1.67 3.99 1.34 4.98 1 6 C-0.875 5.6875 -0.875 5.6875 -3 5 C-3.66 4.01 -4.32 3.02 -5 2 C-3.35 2 -1.7 2 0 2 C0 1.34 0 0.68 0 0 Z " fill="#1E41DA" transform="translate(47,17)"/>
<path d="M0 0 C2.02045442 0.60183749 4.02111039 1.27306096 6 2 C6.33 2.66 6.66 3.32 7 4 C4.69 4 2.38 4 0 4 C0 2.68 0 1.36 0 0 Z " fill="#143DE6" transform="translate(39,102)"/>
<path d="M0 0 C2.64 1.98 5.28 3.96 8 6 C6.68 6.33 5.36 6.66 4 7 C1 5 1 5 0.3125 2.375 C0.209375 1.59125 0.10625 0.8075 0 0 Z " fill="#D2DFFB" transform="translate(37,83)"/>
<path d="M0 0 C1.65 0 3.3 0 5 0 C5 1.32 5 2.64 5 4 C3.35 3.67 1.7 3.34 0 3 C0 2.01 0 1.02 0 0 Z " fill="#1544C0" transform="translate(55,66)"/>
<path d="M0 0 C1.32 0 2.64 0 4 0 C4.33 0.99 4.66 1.98 5 3 C3.02 3.99 3.02 3.99 1 5 C0.34 4.34 -0.32 3.68 -1 3 C-0.67 2.01 -0.34 1.02 0 0 Z " fill="#1E3EE1" transform="translate(51,36)"/>
<path d="M0 0 C2.86095641 1.2824977 5.11365918 2.45343989 7 5 C7.1875 7.6875 7.1875 7.6875 7 10 C4.3513141 6.80331012 2.06007659 3.60513403 0 0 Z " fill="#DFEEFD" transform="translate(89,32)"/>
<path d="M0 0 C0.99 0 1.98 0 3 0 C3.33 1.65 3.66 3.3 4 5 C2.68 5 1.36 5 0 5 C-0.33 4.34 -0.66 3.68 -1 3 C-0.67 2.01 -0.34 1.02 0 0 Z " fill="#FBFDEF" transform="translate(70,0)"/>
<path d="M0 0 C0.66 0.33 1.32 0.66 2 1 C2 3.64 2 6.28 2 9 C0.4375 7.3125 0.4375 7.3125 -1 5 C-0.6875 2.25 -0.6875 2.25 0 0 Z " fill="#FEFEEF" transform="translate(5,63)"/>
<path d="M0 0 C-1.125 1.5625 -1.125 1.5625 -3 3 C-6.1875 2.6875 -6.1875 2.6875 -9 2 C-5.945634 -1.054366 -3.9532319 -1.22686507 0 0 Z " fill="#DDE8FC" transform="translate(64,18)"/>
<path d="M0 0 C1.65 1.65 3.3 3.3 5 5 C4.01 5.33 3.02 5.66 2 6 C1.01 5.01 0.02 4.02 -1 3 C-0.67 2.01 -0.34 1.02 0 0 Z " fill="#E2F1FE" transform="translate(26,98)"/>
<path d="M0 0 C4.875 4.625 4.875 4.625 6 8 C5.34 8 4.68 8 4 8 C4 7.34 4 6.68 4 6 C3.34 6 2.68 6 2 6 C1.34 4.02 0.68 2.04 0 0 Z " fill="#FAFBED" transform="translate(28,82)"/>
<path d="M0 0 C4 4.75 4 4.75 4 7 C2.68 7 1.36 7 0 7 C0 4.69 0 2.38 0 0 Z " fill="#3549C2" transform="translate(22,78)"/>
<path d="M0 0 C0.99 0.33 1.98 0.66 3 1 C4.1875 4.0625 4.1875 4.0625 5 7 C3.68 6.67 2.36 6.34 1 6 C0.4465236 3.92446352 0 2.15634036 0 0 Z " fill="#3148C7" transform="translate(33,74)"/>
<path d="M0 0 C1.32 0.33 2.64 0.66 4 1 C4 1.66 4 2.32 4 3 C4.66 3 5.32 3 6 3 C5.67 4.32 5.34 5.64 5 7 C0 1.125 0 1.125 0 0 Z " fill="#DCEAFB" transform="translate(41,73)"/>
<path d="M0 0 C0.66 0 1.32 0 2 0 C1.67 1.98 1.34 3.96 1 6 C0.01 5.67 -0.98 5.34 -2 5 C-1.125 1.125 -1.125 1.125 0 0 Z " fill="#2C44C6" transform="translate(35,37)"/>
<path d="M0 0 C2.31 0 4.62 0 7 0 C2.25 4 2.25 4 0 4 C0 2.68 0 1.36 0 0 Z " fill="#DAE7FB" transform="translate(44,11)"/>
</svg>
