<?xml version="1.0" standalone="no"?>
<!DOCTYPE svg PUBLIC "-//W3C//DTD SVG 20010904//EN"
 "http://www.w3.org/TR/2001/REC-SVG-20010904/DTD/svg10.dtd">
<svg version="1.0" xmlns="http://www.w3.org/2000/svg"
 width="120.000000pt" height="120.000000pt" viewBox="0 0 120.000000 120.000000"
 preserveAspectRatio="xMidYMid meet">

<g transform="translate(0.000000,120.000000) scale(0.100000,-0.100000)"
fill="#000000" stroke="none">
<path d="M596 1114 c-32 -8 -84 -30 -115 -49 -226 -137 -294 -413 -156 -630
63 -99 190 -186 290 -200 28 -4 58 -9 68 -12 14 -4 17 3 17 39 l0 44 -72 17
c-275 64 -378 389 -190 598 53 59 139 105 215 115 l47 7 0 43 c0 51 -5 52
-104 28z"/>
<path d="M657 939 c-129 -20 -217 -126 -217 -262 0 -72 18 -124 61 -179 34
-43 119 -88 166 -88 l32 0 3 133 3 132 136 3 136 3 -8 44 c-16 85 -68 154
-142 189 -62 29 -105 35 -170 25z"/>
<path d="M75 613 c17 -143 74 -267 170 -371 99 -107 245 -179 398 -196 l57 -6
0 43 0 43 -77 12 c-86 13 -211 69 -276 122 -90 75 -169 226 -183 348 l-7 62
-44 0 -45 0 7 -57z"/>
<path d="M1191 224 c0 -11 3 -14 6 -6 3 7 2 16 -1 19 -3 4 -6 -2 -5 -13z"/>
</g>
</svg>
