<?xml version="1.0" standalone="no"?>
<!DOCTYPE svg PUBLIC "-//W3C//DTD SVG 20010904//EN"
 "http://www.w3.org/TR/2001/REC-SVG-20010904/DTD/svg10.dtd">
<svg version="1.0" xmlns="http://www.w3.org/2000/svg"
 width="507.000000pt" height="175.000000pt" viewBox="0 0 507.000000 175.000000"
 preserveAspectRatio="xMidYMid meet">

<g transform="translate(0.000000,175.000000) scale(0.100000,-0.100000)"
fill="#000000" stroke="none">
<path d="M1160 1386 c-154 -33 -288 -154 -335 -303 -26 -79 -24 -209 3 -285
56 -156 207 -281 358 -295 l64 -6 0 39 0 40 -72 17 c-276 64 -378 394 -186
603 49 54 136 99 209 109 l49 7 0 44 c0 50 0 50 -90 30z"/>
<path d="M3453 1222 c-184 -66 -277 -259 -229 -475 36 -163 149 -270 299 -284
212 -19 377 148 377 381 0 119 -44 238 -112 303 -82 79 -231 112 -335 75z
m135 -37 c72 -31 119 -100 147 -217 20 -84 19 -240 -1 -308 -48 -161 -173
-206 -276 -99 -118 123 -131 486 -20 592 49 47 91 56 150 32z"/>
<path d="M2079 1203 c-6 -16 -56 -161 -110 -323 -55 -162 -107 -306 -118 -320
-11 -15 -35 -29 -62 -36 -27 -7 -45 -17 -47 -27 -3 -15 11 -17 137 -17 134 0
141 1 141 20 0 16 -7 20 -34 20 -19 0 -44 8 -56 18 l-22 18 28 87 28 87 122 0
122 0 31 -81 c39 -101 39 -117 4 -125 -48 -10 -53 -13 -53 -29 0 -13 24 -15
166 -15 151 0 165 2 162 17 -2 10 -17 20 -38 24 -19 4 -41 16 -50 26 -8 11
-71 169 -139 351 l-124 332 -39 0 c-33 0 -40 -4 -49 -27z m107 -415 c5 -16 -4
-18 -100 -18 -58 0 -106 1 -106 3 0 3 87 265 96 287 4 12 75 -164 110 -272z"/>
<path d="M1207 1210 c-205 -35 -291 -284 -153 -447 33 -39 119 -83 163 -83
l32 0 3 133 3 132 136 3 136 3 -8 44 c-16 83 -69 154 -143 189 -62 29 -106 36
-169 26z"/>
<path d="M2560 1201 c0 -14 10 -20 39 -25 22 -3 41 -13 45 -22 3 -8 6 -148 6
-309 0 -323 0 -325 -61 -325 -22 0 -29 -5 -29 -20 0 -19 7 -20 161 -20 146 0
160 2 157 17 -2 10 -16 20 -34 24 -17 3 -36 9 -42 13 -17 10 -17 622 0 632 6
4 25 10 42 13 18 4 32 14 34 24 3 15 -11 17 -157 17 -151 0 -161 -1 -161 -19z"/>
<path d="M3970 1200 c0 -13 7 -20 20 -20 11 0 29 -9 40 -20 19 -19 20 -33 20
-319 0 -217 -3 -302 -12 -307 -6 -4 -25 -10 -42 -13 -17 -4 -32 -14 -34 -23
-3 -15 14 -17 152 -20 156 -3 156 -3 156 20 0 17 -6 22 -28 22 -47 0 -52 14
-52 136 l0 112 73 12 c250 42 370 172 295 320 -48 94 -137 120 -407 120 -174
0 -181 -1 -181 -20z m388 -40 c76 -34 105 -146 61 -236 -28 -59 -84 -91 -191
-109 l-38 -6 0 186 0 185 63 0 c40 0 77 -7 105 -20z"/>
<path d="M625 883 c22 -199 143 -388 308 -483 65 -38 185 -77 260 -85 l57 -6
0 43 0 44 -77 12 c-148 23 -284 108 -366 228 -54 80 -83 153 -93 242 l-7 62
-44 0 -44 0 6 -57z"/>
</g>
</svg>
